<svg xmlns="http://www.w3.org/2000/svg" width="207.6" height="317.1" viewBox="0 0 207.6 317.1">
  <defs>
    <style>
      .cls-1 {
        fill: #55823b;
      }

      .cls-2 {
        fill: #fff;
      }

      .cls-3 {
        fill: #f7921e;
      }
    </style>
  </defs>
  <g id="Layer_2" data-name="Layer 2">
    <g id="Layer_1-2" data-name="Layer 1">
      <g>
        <polygon class="cls-1" points="0.1 0 0 0 0 0 0.1 0"/>
        <polygon class="cls-2" points="0 36.9 0 317.1 64.9 317.1 64.9 1.4 0 36.9"/>
      </g>
      <g>
        <path class="cls-1" d="M30.8,273.4a24.7,24.7,0,0,0,8.1-1.2,17.7,17.7,0,0,0,5.6-3.1,12.4,12.4,0,0,0,3.3-4.4,12.9,12.9,0,0,0,1.1-5,10.6,10.6,0,0,0-1-4.8,11.5,11.5,0,0,0-2.5-3.7,15.2,15.2,0,0,0-3.5-2.6,17.7,17.7,0,0,0-4.2-1.5v-4.3a22.8,22.8,0,0,1,5.9,2,16.5,16.5,0,0,1,4.7,3.5,13.8,13.8,0,0,1,3.2,5,16.2,16.2,0,0,1,1.2,6.4,17.8,17.8,0,0,1-1.5,7.4,14.4,14.4,0,0,1-4.3,5.7,20.7,20.7,0,0,1-6.9,3.7,32.6,32.6,0,0,1-9.2,1.2,24.8,24.8,0,0,1-7.7-1.2,21.4,21.4,0,0,1-6.5-3.5,16.4,16.4,0,0,1-4.5-5.6,16.2,16.2,0,0,1-1.7-7.7,21.5,21.5,0,0,1,.9-6.4,15.5,15.5,0,0,1,2.7-4.9,13.5,13.5,0,0,1,4-3.5,16.8,16.8,0,0,1,5.1-2.2v4.5a13.9,13.9,0,0,0-6.8,4.7,13.3,13.3,0,0,0-2.2,7.8,11.6,11.6,0,0,0,1.4,5.6,13.4,13.4,0,0,0,3.6,4.3,15.8,15.8,0,0,0,5.3,2.8A19.5,19.5,0,0,0,30.8,273.4Z"/>
        <path class="cls-1" d="M11.4,214.9l40.3-14.6v4.4l-12.8,4.7v17.1l12.8,4.7v4.4L11.4,220.8Zm4,3,20.2,7.4V210.6Z"/>
        <path class="cls-1" d="M11.4,172.4l40.3-14.6v4.4l-12.8,4.7V184l12.8,4.7v4.4L11.4,178.3Zm4,3,20.2,7.4V168.1Z"/>
        <path class="cls-1" d="M11.4,142.9l34.4-12.8-34.4-13v-5.6H51.7v4.3H18.6l33.1,12.1v3.9L18.6,144.2H51.7v4.3H11.4Z"/>
        <path class="cls-1" d="M11.4,100V84.8a12.1,12.1,0,0,1,1-5.2,11.9,11.9,0,0,1,2.7-3.8,11.2,11.2,0,0,1,3.7-2.4,11.5,11.5,0,0,1,4.1-.8,12.5,12.5,0,0,1,4.2.8,11.8,11.8,0,0,1,3.7,2.4,10.3,10.3,0,0,1,2.6,3.8,12.1,12.1,0,0,1,1,5.2V95.7H51.7V100Zm19.2-4.3V84.8a7.3,7.3,0,0,0-.6-3,7.2,7.2,0,0,0-1.6-2.5,10.1,10.1,0,0,0-2.5-1.7,6.7,6.7,0,0,0-3.1-.7,7.3,7.3,0,0,0-3,.6,8.1,8.1,0,0,0-2.4,1.7,7,7,0,0,0-1.5,2.5,7.5,7.5,0,0,0-.6,3.1V95.7Z"/>
      </g>
      <polygon class="cls-3" points="207.6 193.2 207.6 76.8 69.6 1.4 69.6 316.8 207.6 316.8 207.6 245.2 157.9 233.6 157.9 291.5 134.2 291.5 134.2 63.3 157.9 76.2 157.9 181.6 207.6 193.2"/>
    </g>
  </g>
</svg>
